<svg id="Слой_1" data-name="Слой 1" xmlns="http://www.w3.org/2000/svg" xmlns:xlink="http://www.w3.org/1999/xlink" viewBox="0 0 24 24"><defs><style>.cls-1{fill:none;}.cls-2{fill:#fff;}.cls-3{fill:#737574;}.cls-4{clip-path:url(#clip-path);}.cls-5{fill:#dcdbdb;}.cls-6{fill:#dddcdd;}.cls-7{fill:#deddde;}.cls-8{fill:#dfdfdf;}.cls-9{fill:#e0e0e0;}.cls-10{fill:#e1e1e1;}.cls-11{fill:#e2e2e2;}.cls-12{fill:#e3e3e3;}.cls-13{fill:#e4e4e4;}.cls-14{fill:#e5e5e5;}.cls-15{fill:#e6e6e6;}.cls-16{fill:#e7e7e7;}.cls-17{fill:#e8e8e8;}.cls-18{fill:#e9e9e9;}.cls-19{fill:#eaeaea;}.cls-20{fill:#ecebeb;}.cls-21{fill:#edeced;}.cls-22{fill:#eee;}.cls-23{fill:#efefef;}.cls-24{fill:#f0f0f0;}.cls-25{fill:#f1f1f1;}.cls-26{fill:#f2f2f2;}.cls-27{fill:#f3f3f3;}.cls-28{fill:#f4f4f4;}.cls-29{fill:#f5f5f5;}.cls-30{fill:#f6f6f6;}.cls-31{fill:#f8f8f8;}.cls-32{fill:#f9f9f9;}.cls-33{fill:#fafafa;}.cls-34{fill:#fcfcfc;}.cls-35{fill:#fdfdfd;}.cls-36{fill:#4e4e4e;}.cls-37{fill:#8e8e8e;}.cls-38{fill:#486d84;}.cls-39{fill:url(#Безымянный_градиент_23);}</style><clipPath id="clip-path"><rect class="cls-1" x="0.5" y="6.5" width="23" height="13" rx="1.97" ry="1.97"/></clipPath><linearGradient id="Безымянный_градиент_23" x1="12.57" y1="13" x2="12.57" y2="6.83" gradientUnits="userSpaceOnUse"><stop offset="0" stop-color="#2380a3"/><stop offset="0.04" stop-color="#3289a8"/><stop offset="0.14" stop-color="#579fb3"/><stop offset="0.24" stop-color="#74b1bc"/><stop offset="0.34" stop-color="#88bdc2"/><stop offset="0.44" stop-color="#95c5c6"/><stop offset="0.54" stop-color="#99c7c7"/><stop offset="0.62" stop-color="#95c5c6"/><stop offset="0.69" stop-color="#8ac0c2"/><stop offset="0.77" stop-color="#77b8bc"/><stop offset="0.84" stop-color="#5dacb3"/><stop offset="0.91" stop-color="#3b9ca8"/><stop offset="0.97" stop-color="#128a9a"/><stop offset="1" stop-color="#008294"/></linearGradient></defs><title>printer</title><rect class="cls-2" x="6.5" y="0.5" width="11" height="6"/><path class="cls-3" d="M18,7H6V0H18ZM7,6H17V1H7Z"/><g class="cls-4"><polygon class="cls-5" points="0.5 19.49 3.75 19.5 0.5 19.5 0.5 19.49"/><polygon class="cls-6" points="0.5 19.08 23.5 19.18 23.5 19.5 3.75 19.5 0.5 19.49 0.5 19.08"/><polygon class="cls-7" points="0.5 18.68 23.5 18.77 23.5 19.18 0.5 19.08 0.5 18.68"/><polygon class="cls-8" points="0.5 18.27 23.5 18.37 23.5 18.77 0.5 18.68 0.5 18.27"/><polygon class="cls-9" points="0.5 17.87 23.5 17.96 23.5 18.37 0.5 18.27 0.5 17.87"/><polygon class="cls-10" points="0.5 17.46 23.5 17.56 23.5 17.96 0.5 17.87 0.5 17.46"/><polygon class="cls-11" points="0.5 17.06 23.5 17.15 23.5 17.56 0.5 17.46 0.5 17.06"/><polygon class="cls-12" points="0.5 16.66 23.5 16.75 23.5 17.15 0.5 17.06 0.5 16.66"/><polygon class="cls-13" points="0.5 16.25 23.5 16.34 23.5 16.75 0.5 16.66 0.5 16.25"/><polygon class="cls-14" points="0.5 15.85 23.5 15.94 23.5 16.34 0.5 16.25 0.5 15.85"/><polygon class="cls-15" points="0.5 15.44 23.5 15.53 23.5 15.94 0.5 15.85 0.5 15.44"/><polygon class="cls-16" points="0.5 15.04 23.5 15.13 23.5 15.53 0.5 15.44 0.5 15.04"/><polygon class="cls-17" points="0.5 14.63 23.5 14.72 23.5 15.13 0.5 15.04 0.5 14.63"/><polygon class="cls-18" points="0.5 14.23 23.5 14.32 23.5 14.72 0.5 14.63 0.5 14.23"/><polygon class="cls-19" points="0.5 13.82 23.5 13.91 23.5 14.32 0.5 14.23 0.5 13.82"/><polygon class="cls-20" points="0.5 13.42 23.5 13.51 23.5 13.91 0.5 13.82 0.5 13.42"/><polygon class="cls-21" points="0.5 13.01 23.5 13.11 23.5 13.51 0.5 13.42 0.5 13.01"/><polygon class="cls-22" points="0.5 12.61 23.5 12.7 23.5 13.11 0.5 13.01 0.5 12.61"/><polygon class="cls-23" points="0.5 12.2 23.5 12.3 23.5 12.7 0.5 12.61 0.5 12.2"/><polygon class="cls-24" points="0.5 11.8 23.5 11.89 23.5 12.3 0.5 12.2 0.5 11.8"/><polygon class="cls-25" points="0.5 11.39 23.5 11.49 23.5 11.89 0.5 11.8 0.5 11.39"/><polygon class="cls-26" points="0.5 10.99 23.5 11.08 23.5 11.49 0.5 11.39 0.5 10.99"/><polygon class="cls-27" points="0.5 10.59 23.5 10.68 23.5 11.08 0.5 10.99 0.5 10.59"/><polygon class="cls-28" points="0.5 10.18 23.5 10.27 23.5 10.68 0.5 10.59 0.5 10.18"/><polygon class="cls-29" points="0.5 9.78 23.5 9.87 23.5 10.27 0.5 10.18 0.5 9.78"/><polygon class="cls-30" points="0.5 9.37 23.5 9.46 23.5 9.87 0.5 9.78 0.5 9.37"/><polygon class="cls-31" points="0.5 8.97 23.5 9.06 23.5 9.46 0.5 9.37 0.5 8.97"/><polygon class="cls-32" points="0.5 8.56 23.5 8.66 23.5 9.06 0.5 8.97 0.5 8.56"/><polygon class="cls-33" points="0.5 8.16 23.5 8.25 23.5 8.66 0.5 8.56 0.5 8.16"/><polygon class="cls-34" points="0.5 7.75 23.5 7.85 23.5 8.25 0.5 8.16 0.5 7.75"/><polygon class="cls-35" points="0.5 7.35 23.5 7.44 23.5 7.85 0.5 7.75 0.5 7.35"/><polygon class="cls-2" points="0.5 6.94 23.5 7.04 23.5 7.44 0.5 7.35 0.5 6.94"/><polygon class="cls-2" points="23.5 7.04 0.5 6.94 0.5 6.5 23.5 6.5 23.5 7.04"/></g><path class="cls-3" d="M21.53,20H2.47A2.47,2.47,0,0,1,0,17.53V8.47A2.47,2.47,0,0,1,2.47,6H21.53A2.47,2.47,0,0,1,24,8.47v9.06A2.47,2.47,0,0,1,21.53,20ZM2.47,7A1.47,1.47,0,0,0,1,8.47H1v9.06A1.47,1.47,0,0,0,2.47,19H21.53A1.47,1.47,0,0,0,23,17.53V8.47A1.47,1.47,0,0,0,21.53,7Z"/><rect class="cls-36" x="4.5" y="16.5" width="15" height="5"/><path class="cls-3" d="M20,22H4V16H20ZM5,21H19V17H5Z"/><polyline class="cls-2" points="17.5 17 17.5 23.5 6.5 23.5 6.5 17"/><polygon class="cls-37" points="18 24 6 24 6 17 7 17 7 23 17 23 17 17 18 17 18 24"/><path class="cls-38" d="M18.69,14H6.31A1.31,1.31,0,0,1,5,12.69H5V7.31A1.31,1.31,0,0,1,6.31,6H18.69A1.31,1.31,0,0,1,20,7.31v5.38A1.31,1.31,0,0,1,18.69,14ZM6.31,7A.31.31,0,0,0,6,7.31v5.38a.31.31,0,0,0,.31.31H18.69a.31.31,0,0,0,.31-.31V7.31A.31.31,0,0,0,18.69,7Z"/><rect class="cls-39" x="6" y="6.83" width="13.14" height="6.17" rx="0.36" ry="0.36"/></svg>